<svg xmlns="http://www.w3.org/2000/svg" viewBox="0 0 708.99 93.71"><defs><style>.cls-1{fill:#8273f1;}.cls-2{fill:#323c44;}</style></defs><g id="Layer_2" data-name="Layer 2"><g id="Layer_1-2" data-name="Layer 1"><path class="cls-1" d="M8.92,29A8.78,8.78,0,0,0,0,37.64v.56a8.78,8.78,0,0,0,8.92,8.64,8.78,8.78,0,0,0,8.92-8.64v-.56A8.78,8.78,0,0,0,8.92,29Z"/><path class="cls-1" d="M127.89,29,105,6.15l-.29-.26h0l-.3-.22h0a3.71,3.71,0,0,0-4.64.48L96,10a2.81,2.81,0,0,0-.12,3.86,36.68,36.68,0,0,1-.21,48.41,2.76,2.76,0,0,0-.51,1.5V64s0,.1,0,.14,0,.06,0,.09,0,.09,0,.13,0,.06,0,.09l0,.13,0,.1a.56.56,0,0,0,0,.12.42.42,0,0,0,0,.1.49.49,0,0,0,0,.11.37.37,0,0,1,.05.11.41.41,0,0,1,0,.09l.07.12,0,.08a.64.64,0,0,0,.1.13l0,.07.16.18,3.88,3.88a3.7,3.7,0,0,0,5.24,0l22.87-22.87A12.57,12.57,0,0,0,127.89,29Z"/><rect class="cls-1" x="44.59" width="33.46" height="13.38" rx="6.69"/><rect class="cls-1" x="44.59" y="62.45" width="33.46" height="13.38" rx="6.69"/><rect class="cls-1" x="31.23" y="31.23" width="60.2" height="13.38" rx="6.69"/><path class="cls-2" d="M217.74,43.87V75.18a.67.67,0,0,1-.66.66H204.52a.66.66,0,0,1-.66-.66V46.82c0-7.37-4.21-12.31-10.62-12.31-7.89,0-13,5.26-13,18.09V75.18a.67.67,0,0,1-.66.66H167a.67.67,0,0,1-.66-.66V.79A.66.66,0,0,1,167,.13h12.56a.66.66,0,0,1,.66.66v25.8a.66.66,0,0,0,1.09.49c4-3.45,9.08-5.29,15.42-5.29C209.33,21.79,217.74,30.83,217.74,43.87Z"/><path class="cls-2" d="M247,93.71h-14a.66.66,0,0,1-.6-.92l7.9-18.38a.67.67,0,0,0,0-.52L219,24.18a.66.66,0,0,1,.61-.92h14a.65.65,0,0,1,.61.41l13.12,31.69a.65.65,0,0,0,1.21,0l13.72-31.71a.68.68,0,0,1,.61-.4h14a.66.66,0,0,1,.6.92L247.56,93.31A.64.64,0,0,1,247,93.71Z"/><path class="cls-2" d="M339.08,49.65c0,16.51-12.41,27.76-25.76,27.76A27.2,27.2,0,0,1,297,72.53a.66.66,0,0,0-1,.54v20a.66.66,0,0,1-.66.66H282.75a.65.65,0,0,1-.66-.66V24a.65.65,0,0,1,.66-.66h12.56A.66.66,0,0,1,296,24v2.19a.66.66,0,0,0,1,.53,26.69,26.69,0,0,1,16.3-5C326.67,21.79,339.08,33.15,339.08,49.65Zm-13.46,0c0-9.67-6.31-15.77-14.72-15.77C303.43,33.88,296,40,296,49.65s7.46,15.67,14.93,15.67C319.31,65.32,325.62,59.33,325.62,49.65Z"/><path class="cls-2" d="M396.36,53.33H357.87a.66.66,0,0,0-.65.8c1.59,7.1,6.8,11.4,13,11.4,4,0,9-.5,12.8-6.54a.67.67,0,0,1,.7-.3l11.15,2.36a.66.66,0,0,1,.47.92C390.59,72.4,381.4,77.41,370.2,77.41c-14.82,0-26.91-11.25-26.91-27.76s12.09-27.86,27.12-27.86c14,0,26.08,10.83,26.61,26.81v4.07A.66.66,0,0,1,396.36,53.33Zm-38-9.77h23.57a.67.67,0,0,0,.62-.88,12.13,12.13,0,0,0-12.15-8.8,13.23,13.23,0,0,0-12.67,8.8A.67.67,0,0,0,358.37,43.56Z"/><path class="cls-2" d="M439.68,23.57,439,35.78a.67.67,0,0,1-.66.63h-2.43c-12.83,0-18.71,7.88-18.71,22.5V75.18a.67.67,0,0,1-.66.66H404a.66.66,0,0,1-.66-.66V24a.65.65,0,0,1,.66-.66h12.56a.66.66,0,0,1,.66.66v6.91a.65.65,0,0,0,1.17.4A21.73,21.73,0,0,1,436,22.63a12.31,12.31,0,0,1,3.14.26A.67.67,0,0,1,439.68,23.57Z"/><path class="cls-2" d="M489.57,73a.66.66,0,0,1-.32.8c-5.2,2.74-8.88,3.62-13.16,3.62-12.41,0-20.61-6.52-20.61-20.92V35.38a.67.67,0,0,0-.66-.66h-9.93a.65.65,0,0,1-.66-.66V24a.65.65,0,0,1,.66-.66h9.93a.67.67,0,0,0,.66-.66V8.15a.65.65,0,0,1,.66-.66H468.7a.66.66,0,0,1,.66.66V22.71a.66.66,0,0,0,.66.66h17.11a.65.65,0,0,1,.66.66v10a.65.65,0,0,1-.66.66H470a.66.66,0,0,0-.66.66V55.44c0,6.31,3.05,9,7.67,9a20.5,20.5,0,0,0,8.06-2.18.67.67,0,0,1,.92.38Z"/><path class="cls-2" d="M531.47,23.57l-.67,12.21a.67.67,0,0,1-.66.63h-2.43c-12.82,0-18.71,7.88-18.71,22.5V75.18a.67.67,0,0,1-.66.66H495.78a.66.66,0,0,1-.66-.66V24a.65.65,0,0,1,.66-.66h12.56A.66.66,0,0,1,509,24v6.91a.66.66,0,0,0,1.18.4,21.7,21.7,0,0,1,17.64-8.71,12.27,12.27,0,0,1,3.14.26A.67.67,0,0,1,531.47,23.57Z"/><path class="cls-2" d="M589.72,75.84H577.16a.67.67,0,0,1-.66-.66V73.07a.65.65,0,0,0-1-.54,27.25,27.25,0,0,1-16.32,4.88c-13.35,0-25.76-11.25-25.76-27.76s12.41-27.86,25.76-27.86c6.6,0,12,1.79,16.31,5a.65.65,0,0,0,1-.53V24a.66.66,0,0,1,.66-.66h12.56a.65.65,0,0,1,.66.66V75.18A.66.66,0,0,1,589.72,75.84ZM576.5,49.65c0-9.67-7.46-15.77-14.93-15.77-8.41,0-14.72,6.1-14.72,15.77s6.31,15.67,14.72,15.67C569,65.32,576.5,59.33,576.5,49.65Z"/><path class="cls-2" d="M638.81,54.64l11.6,3a.67.67,0,0,1,.48.81c-3.17,11.61-13.84,19-26.12,19-15.36,0-28.08-11.25-28.08-27.76s12.72-27.86,28.08-27.86a27,27,0,0,1,26.08,18.7.65.65,0,0,1-.45.83l-12.06,3.42a.67.67,0,0,1-.82-.46c-2-6.9-6.83-9.77-12.75-9.77-8.73,0-14.62,6.21-14.62,15.14s5.89,15,14.62,15c5.93,0,10.77-2.79,13.26-9.63A.66.66,0,0,1,638.81,54.64Z"/><path class="cls-2" d="M708.33,53.33H669.84a.66.66,0,0,0-.65.8c1.59,7.1,6.8,11.4,13,11.4,4,0,9-.5,12.79-6.54a.67.67,0,0,1,.7-.3l11.16,2.36a.67.67,0,0,1,.47.92c-4.74,10.43-13.92,15.44-25.12,15.44-14.83,0-26.92-11.25-26.92-27.76s12.09-27.86,27.13-27.86c14,0,26.08,10.83,26.6,26.81v4.07A.65.65,0,0,1,708.33,53.33Zm-38-9.77h23.57a.67.67,0,0,0,.63-.88,12.14,12.14,0,0,0-12.15-8.8,13.24,13.24,0,0,0-12.68,8.8A.67.67,0,0,0,670.34,43.56Z"/></g></g></svg>